# xmcd CD database file
#
# Track frame offsets:
#	187
#	40310
#	101905
#	119200
#	173995
#	195030
#	203810
#	218997
#	230285
#	242615
#
# Disc length: 3447 seconds
#
# Revision: 0
# Processed by: cddbd v1.5PL3 Copyright (c) Steve Scherf et al.
# Submitted via: CDex 1.51
#
DISCID=8c0d750a
DTITLE=J.S.バッハ - トッカータとフーガ - バッハ・オルガン名曲集
DYEAR=1900
DGENRE=Classical
TTITLE0=トッカータとフーガニ短調BWV.565
TTITLE1=パッサカリアとフーガハ短調BWV.582
TTITLE2=小フーガト短調BWV.578
TTITLE3=幻想曲とフーガト短調BWV.542
TTITLE4=目を覚ませと呼ぶ声が聞こえBWV.645
TTITLE5=我いずこに逃がれ行かんBWV.646
TTITLE6=ただ神の摂理にまかす者BWV.647
TTITLE7=我が心、主をあがめBWV.648
TTITLE8=ああ、我らとともに留まりたまえ主イエス･キリストよBWV.649
TTITLE9=イエスよ、今み空より地に降りたもうやBWV.650
EXTD=
EXTT0=
EXTT1=
EXTT2=
EXTT3=
EXTT4=
EXTT5=
EXTT6=
EXTT7=
EXTT8=
EXTT9=
PLAYORDER=
